Normalized EMG Linear Envelopes
nRows=52
nColumns=17

endheader
time	1_BAD	2_Glutmax_R	3_Vaslat_R	4_Recfem_R	5_Bifem_R	6_Gasmed_R	7_BAD	8_Soleus_R	9_Tibant_R	10_Glutmax_L	11_Vaslat_L	12_Recfem_L	13_Bifem_L	14_Gasmed_L	15_Soleus_L	16_Tibant_L
22.805	0.713173	0.046338	0.009409	0.541420	0.023804	0.015630	0.444892	0.030355	0.051867	0.630677	0.659728	0.512827	0.727515	0.607890	0.779932	0.984178	
22.806	0.727144	0.046083	0.009416	0.540184	0.024097	0.016269	0.454337	0.030702	0.051413	0.631830	0.669321	0.524569	0.738412	0.613960	0.783504	0.979785	
22.807	0.741115	0.045811	0.009439	0.538840	0.024390	0.017019	0.463836	0.031164	0.050970	0.632739	0.679196	0.536466	0.749009	0.619658	0.786672	0.974844	
22.808	0.755056	0.045524	0.009478	0.537394	0.024683	0.017877	0.473367	0.031741	0.050539	0.633410	0.689325	0.548491	0.759286	0.624975	0.789436	0.969353	
22.809	0.768936	0.045222	0.009535	0.535855	0.024975	0.018837	0.482906	0.032435	0.050119	0.633848	0.699680	0.560613	0.769225	0.629905	0.791793	0.963313	
22.810	0.782721	0.044907	0.009612	0.534230	0.025266	0.019894	0.492427	0.033247	0.049709	0.634059	0.710231	0.572800	0.778806	0.634441	0.793745	0.956726	
22.811	0.796379	0.044580	0.009711	0.532527	0.025555	0.021042	0.501907	0.034177	0.049309	0.634051	0.720948	0.585020	0.788013	0.638578	0.795290	0.949593	
22.812	0.809876	0.044242	0.009833	0.530753	0.025842	0.022277	0.511322	0.035227	0.048919	0.633830	0.731798	0.597239	0.796831	0.642312	0.796430	0.941920	
22.813	0.823180	0.043895	0.009980	0.528916	0.026126	0.023592	0.520648	0.036397	0.048539	0.633405	0.742748	0.609424	0.805242	0.645639	0.797165	0.933712	
22.814	0.836254	0.043540	0.010154	0.527024	0.026407	0.024983	0.529860	0.037687	0.048167	0.632784	0.753765	0.621540	0.813234	0.648557	0.797498	0.924975	
22.815	0.849066	0.043179	0.010357	0.525084	0.026685	0.026443	0.538934	0.039099	0.047805	0.631975	0.764815	0.633551	0.820792	0.651064	0.797431	0.915717	
22.816	0.861580	0.042813	0.010591	0.523103	0.026958	0.027967	0.547849	0.040633	0.047451	0.630987	0.775862	0.645423	0.827905	0.653160	0.796967	0.905948	
22.817	0.873761	0.042443	0.010857	0.521090	0.027226	0.029549	0.556580	0.042289	0.047106	0.629830	0.786872	0.657120	0.834562	0.654844	0.796108	0.895678	
22.818	0.885576	0.042071	0.011157	0.519051	0.027489	0.031184	0.565106	0.044066	0.046769	0.628511	0.797809	0.668605	0.840751	0.656117	0.794859	0.884919	
22.819	0.896990	0.041698	0.011493	0.516993	0.027747	0.032866	0.573406	0.045967	0.046441	0.627042	0.808637	0.679843	0.846465	0.656981	0.793224	0.873685	
22.820	0.907969	0.041326	0.011866	0.514923	0.027998	0.034589	0.581460	0.047989	0.046122	0.625431	0.819320	0.690798	0.851694	0.657437	0.791208	0.861990	
22.821	0.918479	0.040957	0.012279	0.512847	0.028243	0.036348	0.589247	0.050133	0.045813	0.623687	0.829823	0.701437	0.856432	0.657488	0.788815	0.849849	
22.822	0.928489	0.040592	0.012733	0.510771	0.028480	0.038136	0.596750	0.052398	0.045513	0.621821	0.840110	0.711723	0.860672	0.657138	0.786053	0.837281	
22.823	0.937964	0.040231	0.013228	0.508702	0.028710	0.039949	0.603951	0.054785	0.045224	0.619842	0.850145	0.721624	0.864409	0.656390	0.782927	0.824302	
22.824	0.946874	0.039878	0.013767	0.506644	0.028932	0.041779	0.610834	0.057291	0.044946	0.617759	0.859894	0.731106	0.867639	0.655249	0.779443	0.810933	
22.825	0.955189	0.039532	0.014351	0.504602	0.029145	0.043623	0.617385	0.059917	0.044680	0.615581	0.869322	0.740139	0.870359	0.653719	0.775611	0.797193	
22.826	0.962880	0.039196	0.014981	0.502583	0.029349	0.045474	0.623591	0.062662	0.044427	0.613317	0.878396	0.748690	0.872566	0.651805	0.771436	0.783104	
22.827	0.969917	0.038871	0.015659	0.500590	0.029544	0.047327	0.629439	0.065523	0.044188	0.610977	0.887083	0.756732	0.874258	0.649514	0.766928	0.768688	
22.828	0.976275	0.038558	0.016384	0.498627	0.029729	0.049176	0.634919	0.068500	0.043966	0.608569	0.895352	0.764236	0.875434	0.646851	0.762094	0.753968	
22.829	0.981928	0.038257	0.017157	0.496698	0.029904	0.051016	0.640023	0.071591	0.043760	0.606100	0.903171	0.771176	0.876095	0.643822	0.756945	0.738969	
22.830	0.986853	0.037972	0.017981	0.494808	0.030069	0.052842	0.644744	0.074795	0.043574	0.603580	0.910510	0.777529	0.876240	0.640436	0.751489	0.723715	
22.831	0.991026	0.037702	0.018854	0.492958	0.030223	0.054649	0.649075	0.078109	0.043408	0.601015	0.917341	0.783271	0.875872	0.636697	0.745736	0.708231	
22.832	0.994429	0.037448	0.019778	0.491153	0.030366	0.056432	0.653014	0.081531	0.043266	0.598412	0.923638	0.788383	0.874991	0.632615	0.739696	0.692544	
22.833	0.997044	0.037212	0.020752	0.489393	0.030497	0.058186	0.656559	0.085059	0.043149	0.595779	0.929373	0.792847	0.873601	0.628198	0.733380	0.676680	
22.834	0.998852	0.036995	0.021776	0.487683	0.030617	0.059905	0.659708	0.088691	0.043059	0.593121	0.934524	0.796646	0.871704	0.623452	0.726798	0.660665	
22.835	0.999842	0.036797	0.022851	0.486023	0.030725	0.061586	0.662463	0.092424	0.043000	0.590445	0.939067	0.799766	0.869304	0.618388	0.719961	0.644527	
22.836	1.000000	0.036619	0.023976	0.484415	0.030821	0.063225	0.664827	0.096255	0.042973	0.587754	0.942982	0.802198	0.866406	0.613013	0.712881	0.628294	
22.837	0.999317	0.036462	0.025150	0.482860	0.030904	0.064816	0.666805	0.100180	0.042982	0.585055	0.946250	0.803932	0.863014	0.607337	0.705569	0.611992	
22.838	0.997786	0.036327	0.026372	0.481359	0.030975	0.066356	0.668403	0.104198	0.043030	0.582351	0.948852	0.804962	0.859134	0.601370	0.698036	0.595650	
22.839	0.995401	0.036213	0.027642	0.479912	0.031034	0.067841	0.669629	0.108303	0.043120	0.579645	0.950774	0.805285	0.854770	0.595122	0.690295	0.579296	
22.840	0.992159	0.036122	0.028959	0.478521	0.031080	0.069267	0.670492	0.112492	0.043255	0.576941	0.952002	0.804900	0.849931	0.588603	0.682356	0.562956	
22.841	0.988061	0.036054	0.030321	0.477185	0.031113	0.070630	0.671003	0.116762	0.043439	0.574241	0.952523	0.803807	0.844622	0.581823	0.674232	0.546659	
22.842	0.983108	0.036010	0.031726	0.475903	0.031133	0.071929	0.671175	0.121107	0.043675	0.571546	0.952330	0.802013	0.838852	0.574794	0.665934	0.530431	
22.843	0.977305	0.035988	0.033174	0.474676	0.031141	0.073158	0.671021	0.125525	0.043966	0.568859	0.951412	0.799522	0.832627	0.567527	0.657475	0.514299	
22.844	0.970659	0.035990	0.034661	0.473502	0.031135	0.074317	0.670556	0.130009	0.044317	0.566180	0.949766	0.796345	0.825957	0.560034	0.648866	0.498289	
22.845	0.963178	0.036016	0.036185	0.472381	0.031117	0.075402	0.669797	0.134556	0.044732	0.563509	0.947386	0.792493	0.818850	0.552326	0.640119	0.482427	
22.846	0.954875	0.036064	0.037745	0.471311	0.031086	0.076410	0.668760	0.139160	0.045213	0.560845	0.944271	0.787980	0.811317	0.544417	0.631245	0.466739	
22.847	0.945764	0.036136	0.039338	0.470292	0.031042	0.077341	0.667463	0.143815	0.045766	0.558189	0.940422	0.782822	0.803366	0.536318	0.622257	0.451247	
22.848	0.935860	0.036231	0.040961	0.469321	0.030986	0.078192	0.665926	0.148517	0.046393	0.555537	0.935841	0.777038	0.795009	0.528043	0.613165	0.435978	
22.849	0.925182	0.036349	0.042610	0.468397	0.030917	0.078962	0.664169	0.153259	0.047100	0.552890	0.930531	0.770648	0.786256	0.519606	0.603980	0.420952	
22.850	0.913751	0.036489	0.044284	0.467518	0.030836	0.079649	0.662211	0.158035	0.047889	0.550244	0.924500	0.763675	0.777119	0.511019	0.594714	0.406192	
22.851	0.901589	0.036650	0.045978	0.466682	0.030743	0.080254	0.660075	0.162840	0.048764	0.547596	0.917756	0.756142	0.767610	0.502298	0.585377	0.391719	
22.852	0.888723	0.036832	0.047690	0.465888	0.030638	0.080775	0.657780	0.167666	0.049730	0.544943	0.910309	0.748075	0.757741	0.493455	0.575979	0.377554	
22.853	0.875178	0.037034	0.049416	0.465133	0.030521	0.081212	0.655349	0.172507	0.050790	0.542282	0.902172	0.739502	0.747525	0.484506	0.566531	0.363714	
22.854	0.860983	0.037256	0.051151	0.464416	0.030392	0.081565	0.652803	0.177356	0.051948	0.539608	0.893358	0.730450	0.736976	0.475465	0.557043	0.350219	
22.855	0.846171	0.037496	0.052893	0.463734	0.030253	0.081835	0.650163	0.182206	0.053208	0.536917	0.883884	0.720950	0.726105	0.466346	0.547524	0.337084	
22.856	0.830772	0.037754	0.054637	0.463085	0.030102	0.082023	0.647452	0.187049	0.054572	0.534204	0.873768	0.711032	0.714929	0.457165	0.537983	0.324325	
